name processed_emg_signals
nRows=81
nColumns=7
 
endheader
time	RGLTMED	RRF	RADDLONG	RST	RTA	RGM
1.852	0.5254365580081415	0.3207706098497724	0.3483687369239471	0.1865266266513045	0.1271285487402054	0.2998129733158119
1.853	0.5248768550762877	0.3155779910361737	0.3466212871780446	0.1865469199640616	0.1270113069059724	0.3004556998131424
1.854	0.5243081035796351	0.3104981129335457	0.3448841028123494	0.18662417611443	0.1269587863935495	0.3010252622999944
1.855	0.5237282950624352	0.3055307207054608	0.3431575774305512	0.1867557897774967	0.1269679751747636	0.3015219229083104
1.856	0.523135450430023	0.3006754873290898	0.3414421207476551	0.1869391476416263	0.1270358692991467	0.3019460304193954
1.857	0.5225276235830547	0.2959320159937929	0.339738157301114	0.1871716322717836	0.1271594761507523	0.3022980193161661
1.858	0.521902904953982	0.2912998424757442	0.3380461251259999	0.1874506260076044	0.1273358176697739	0.3025784087525469
1.859	0.5212594249409837	0.2867784374873774	0.3363664743999101	0.1877735148929131	0.1275619335347279	0.3027878014446
1.86	0.5205953572348779	0.2823672090006316	0.3346996660645358	0.1881376926328766	0.1278348843006503	0.3029268824875233
1.861	0.5199089220350068	0.2780655045430883	0.3330461704302067	0.1885405645744901	0.1281517544883068	0.302996418102225
1.862	0.5191983891509545	0.273872613466008	0.3314064657702216	0.1889795517061958	0.1285096556192094	0.3029972543149649
1.863	0.5184620809878236	0.2697877691838993	0.3297810369119514	0.1894520946716807	0.128905729190796	0.3029303155733688
1.864	0.5176983754141804	0.2658101513850995	0.328170373830951	0.1899556577934341	0.1293371495859645	0.3027966033018868
1.865	0.5169057085126365	0.2619388882135203	0.3265749702547665	0.1904877331007879	0.1298011269108671	0.3025971943997753
1.866	0.5160825772143602	0.2581730584213665	0.3249953222821149	0.1910458443573802	0.130294909754819	0.3023332396844446
1.867	0.5152275418198069	0.2545116934926265	0.323431927023808	0.1916275510824936	0.1308157878660915	0.302005962283128
1.868	0.514339228409242	0.2509537797373086	0.3218852812702972	0.1922304525607576	0.1313610947371633	0.3016166559755051
1.869	0.5134163311468568	0.2474982603556988	0.3203558801907991	0.1928521918344371	0.1319282100929191	0.3011666834897378
1.87	0.5124576144825361	0.2441440374720206	0.3188442160686406	0.1934904596726817	0.1325145622751739	0.3006574747538511
1.871	0.5114619152548524	0.2408899741365943	0.3173507770758097	0.194142998512175	0.1331176305169024	0.3000905251038208
1.872	0.510428144698329	0.2377348962951016	0.3158760460905161	0.194807606363426	0.1337349470998749	0.2994673934489727
1.873	0.5093552903570693	0.2346775947240155	0.3144204995600312	0.1954821406773383	0.1343640993896284	0.2987897003944599
1.874	0.5082424179056166	0.231716826930725	0.3129846064111367	0.1961645221663835	0.1350027317422905	0.2980591263197911
1.875	0.5070886728767661	0.2288513190176943	0.3115688270095366	0.1968527385752143	0.135648547278385	0.2972774094116139
1.8760000000000001	0.5058932822957313	0.2260797675093373	0.3101736121695859	0.19754484839542	0.1362993095194522	0.2964463436483474
1.877	0.5046555562199311	0.2234008411405418	0.3087994022145157	0.1982389845194065	0.1369528438843647	0.2955677767341111
1.8780000000000001	0.5033748891834983	0.2208131826052066	0.3074466260875926	0.1989333578283128	0.1376070390434554	0.2946436079794028
1.879	0.5020507615458432	0.2183154102634094	0.3061157005139134	0.1996262607085909	0.1382598481299962	0.2936757861260723
1.8800000000000001	0.5006827407432232	0.2159061198048323	0.3048070292131741	0.2003160704919508	0.1389092898098415	0.2926663071143113
1.881	0.4992704824420103	0.2135838858663015	0.3035210021626167	0.2010012528129209	0.139553449211	0.2916172117891833
1.8820000000000001	0.4978137315924302	0.2113472636004472	0.3022579949102523	0.2016803648784522	0.1401904787153277	0.2905305835442475
1.883	0.4963123233809527	0.2091947901924771	0.3010183679375068	0.2023520586436832	0.1408185986146903	0.2894085458999035
1.8840000000000001	0.4947661840788235	0.2071249863221575	0.2998024660715847	0.2030150838872119	0.141436097634216	0.2882532600143445
1.885	0.4931753317834803	0.2051363575690123	0.2986106179471945	0.203668291179407	0.1420413333254492	0.2870669221250749
1.8860000000000001	0.491539877048499	0.20322739576023	0.2974431355187511	0.2043106347361108	0.1426327323327289	0.2858517609191343
1.887	0.4898600233969923	0.2013965802620924	0.2963003136229142	0.2049411751506459	0.1432087905364147	0.2846100348303157
1.8880000000000001	0.4881360677124837	0.1996423792171192	0.2951824295920816	0.2055590819959667	0.1437680730769252	0.2833440292619821
1.889	0.4863684005008244	0.1979632507295665	0.2940897429188761	0.2061636362892593	0.1443092142635568	0.2820560537345499
1.8900000000000001	0.4845575060169212	0.1963576440021602	0.2930224949715861	0.2067542328109162	0.1448309173721694	0.280748438957366
1.891	0.4827039622499917	0.1948240004270447	0.291980908760323	0.2073303822699987	0.1453319543356562	0.279423533825507
1.8920000000000001	0.4808084407616543	0.1933607546333831	0.2909651887533147	0.2078917133081151	0.1458111653312289	0.2780837023428124
1.893	0.4788717063710719	0.1919663354945261	0.2899755207425011	0.2084379743342252	0.1462674582685905	0.2767313204732188
1.8940000000000001	0.4768946166823868	0.1906391670969449	0.2890120717567992	0.208969035183052	0.1466998081833059	0.275368772923178
1.895	0.474878121450315	0.1893776696734531	0.2880749900210843	0.2094848885900638	0.1471072565396975	0.2739984498586878
1.8960000000000001	0.4728232617812385	0.1881802605023903	0.2871644049587986	0.2099856514766375	0.1474889104477199	0.2726227435612109
1.897	0.4707311691678811	0.1870453547749268	0.2862804272364143	0.2104715660394551	0.1478439417982452	0.2712440450276665
1.8980000000000001	0.4686030643561774	0.1859713664317422	0.2854231488477796	0.2109430006385849	0.1481715863212875	0.2698647405206758
1.899	0.4664402560429705	0.1849567089707303	0.2845926432377906	0.2114004504786943	0.1484711425718785	0.2684872080764924
1.9000000000000001	0.4642441394029625	0.1839997962273646	0.2837889654644334	0.211844538078349	0.1487419708485069	0.2671138139790214
1.901	0.4620161944429093	0.1830990431293609	0.2830121523987177	0.2122760135220151	0.1489834920493016	0.2657469092092216
1.9020000000000001	0.4597579841811799	0.18225286642791	0.2822622229620248	0.2126957544903967	0.1491951864714221	0.2643888258795927
1.903	0.4574711526499738	0.1814596854079258	0.2815391784000937	0.2131047660645754	0.1493765925592153	0.2630418736637587
1.9040000000000001	0.4551574227183961	0.1807179225799127	0.2808430025924097	0.2135041803002018	0.1495273056067296	0.2617083362314393
1.905	0.4528185937341173	0.1800260043561517	0.280173662395244	0.2138952555681272	0.1496469764200811	0.2603904676991496
1.9060000000000001	0.4504565389832405	0.1793823617136551	0.279531108016174	0.2142793756591604	0.1497353099452208	0.2590904891072451
1.907	0.4480732029686123	0.1787854308464528	0.2789152734175947	0.2146580486514204	0.1497920638664248	0.2578105849336359
1.9080000000000001	0.4456705985083979	0.1782336538097326	0.2783260767461757	0.2150329055405477	0.1498170471806856	0.2565528996543996
1.909	0.4432508036569622	0.1777254791586922	0.2777634207857538	0.2154056986332867	0.1498101187529785	0.2553195343609312
1.9100000000000001	0.4408159584512093	0.1772593625846366	0.2772271934303766	0.2157782997060517	0.1497711858571331	0.2541125434429617
1.911	0.4383682614851832	0.1768337675511022	0.2767172681746889	0.2161526979305199	0.1497002027069394	0.2529339313463327
1.9120000000000001	0.4359099663165692	0.1764471659320731	0.2762335046184174	0.2165309975683332	0.1495971689818932	0.2517856494142084
1.913	0.4334433777086129	0.176098038654727	0.2757757489814669	0.2169154154370052	0.1494621283517115	0.2506695928202408
1.9140000000000001	0.430970847711808	0.1757848763484606	0.2753438346269831	0.2173082781496506	0.1492951670035573	0.2495875976020104
1.915	0.4284947715910751	0.1755061800016157	0.2749375825900091	0.2177120191307359	0.1490964121756335	0.2485414378028872
1.9160000000000001	0.4260175836056211	0.1752604616272371	0.2745568021096072	0.2181291754112555	0.1488660307006257	0.2475328227303007
1.917	0.4235417526507839	0.1750462449384223	0.2742012911641462	0.2185623842071339	0.148604227562153	0.2465633943382027
1.9180000000000001	0.4210697777725188	0.1748620660340351	0.2738708370081825	0.2190143792855148	0.1483112444671644	0.2456347247413325
1.919	0.4186041835665285	0.1747064740950127	0.2735652167103162	0.2194879871238061	0.1479873584368557	0.2447483138685469
1.92	0.4161475154738964	0.1745780320912778	0.2732841976909872	0.2199861228665186	0.1476328804184676	0.2439055872619036
1.921	0.4137023349852111	0.1744753174989776	0.273027538259456	0.2205117860841798	0.1472481539199729	0.2431078940275127
1.922	0.4112712147649029	0.1743969230270475	0.272794988149051	0.2210680563384096	0.1468335536693308	0.2423565049434715
1.923	0.4088567337080036	0.1743414573522107	0.2725862890512616	0.2216580885563082	0.1463894842996128	0.2416526107295108
1.924	0.4064614719416661	0.1743075458605489	0.2724011751475014	0.2222851082173181	0.1459163790608576	0.240997320482449
1.925	0.4040880057852911	0.1742938313940849	0.272239373638781	0.222952406355045	0.145414698559157	0.2403916602807764
1.926	0.401738902683886	0.1742989749999274	0.2721006052716564	0.2236633343770711	0.1448849295230095	0.2398365719612526
1.927	0.3994167161307661	0.1743216566800369	0.2719845848592608	0.2244212987057478	0.144327583596636	0.2393329120695941
1.928	0.3971239805958004	0.1743605761389884	0.2718910217947676	0.2252297552439043	0.143743196159496	0.2388814509868075
1.929	0.394863206475137	0.1744144535274574	0.2718196205547809	0.2260922036700381	0.1431323251710321	0.2384828722321258
1.93	0.3926368750777468	0.1744820301790725	0.2717700811887652	0.2270121815685273	0.1424955500393624	0.2381377719431287
1.931	0.3904474336625935	0.1745620693386398	0.271742099790397	0.2279932584010641	0.1418334705127033	0.2378466585331277
1.932	0.3882972905400564	0.1746533568794462	0.271735368946037	0.2290390293264936	0.1411467055922068	0.2376099525255035
